name D:\school\WTK\thesis\model\3dpredictsim\Results\Final\Fal_s1_bCst_PF_Song2011_ls150_MT_nl_Song2011_MTP_Mu0_ig1_v16.mot
datacolumns 128
datarows 4
range 1.39750324 1.42545330
endheader
time	pelvis_tilt	pelvis_list	pelvis_rotation	pelvis_tx	pelvis_ty	pelvis_tz	hip_flexion_l	hip_adduction_l	hip_rotation_l	hip_flexion_r	hip_adduction_r	hip_rotation_r	knee_angle_l	knee_angle_r	ankle_angle_l	ankle_angle_r	subtalar_angle_l	subtalar_angle_r	tmt_angle_l	tmt_angle_r	mtp_angle_l	mtp_angle_r	lumbar_extension	lumbar_bending	lumbar_rotation	arm_flex_l	arm_add_l	arm_rot_l	arm_flex_r	arm_add_r	arm_rot_r	elbow_flex_l	elbow_flex_r	pro_sup_l	pro_sup_r	glut_med1_l/activation	glut_med2_l/activation	glut_med3_l/activation	glut_min1_l/activation	glut_min2_l/activation	glut_min3_l/activation	semimem_l/activation	semiten_l/activation	bifemlh_l/activation	bifemsh_l/activation	sar_l/activation	add_long_l/activation	add_brev_l/activation	add_mag1_l/activation	add_mag2_l/activation	add_mag3_l/activation	tfl_l/activation	pect_l/activation	grac_l/activation	glut_max1_l/activation	glut_max2_l/activation	glut_max3_l/activation	iliacus_l/activation	psoas_l/activation	quad_fem_l/activation	gem_l/activation	peri_l/activation	rect_fem_l/activation	vas_med_l/activation	vas_int_l/activation	vas_lat_l/activation	med_gas_l/activation	lat_gas_l/activation	soleus_l/activation	tib_post_l/activation	flex_dig_l/activation	flex_hal_l/activation	tib_ant_l/activation	per_brev_l/activation	per_long_l/activation	per_tert_l/activation	ext_dig_l/activation	ext_hal_l/activation	ercspn_l/activation	intobl_l/activation	extobl_l/activation	glut_med1_r/activation	glut_med2_r/activation	glut_med3_r/activation	glut_min1_r/activation	glut_min2_r/activation	glut_min3_r/activation	semimem_r/activation	semiten_r/activation	bifemlh_r/activation	bifemsh_r/activation	sar_r/activation	add_long_r/activation	add_brev_r/activation	add_mag1_r/activation	add_mag2_r/activation	add_mag3_r/activation	tfl_r/activation	pect_r/activation	grac_r/activation	glut_max1_r/activation	glut_max2_r/activation	glut_max3_r/activation	iliacus_r/activation	psoas_r/activation	quad_fem_r/activation	gem_r/activation	peri_r/activation	rect_fem_r/activation	vas_med_r/activation	vas_int_r/activation	vas_lat_r/activation	med_gas_r/activation	lat_gas_r/activation	soleus_r/activation	tib_post_r/activation	flex_dig_r/activation	flex_hal_r/activation	tib_ant_r/activation	per_brev_r/activation	per_long_r/activation	per_tert_r/activation	ext_dig_r/activation	ext_hal_r/activation	ercspn_r/activation	intobl_r/activation	extobl_r/activation	
          1.39750324	         -9.12225736	          2.18538855	         -3.61449190	          2.23600518	          0.91044378	          0.00330442	         35.18098592	          3.24601950	         -3.63016202	        -12.08837645	         -0.20068861	          8.11232484	         -8.85733908	         -6.82280803	          7.21810128	         -6.19974865	         -8.30273668	          1.78917902	         -0.27180666	          2.20535826	         26.19106970	         32.24133742	          2.47543371	         -1.19283047	          2.13160239	         -5.12036922	        -14.23867255	          3.63064256	          4.23143276	        -13.55738870	         17.38511279	         25.64937054	         38.61601148	         86.51662706	         86.51662706	          0.06903578	          0.05776400	          0.05776386	          0.05776397	          0.05776397	          0.05776397	          0.34579364	          0.05776408	          0.18583750	          0.05000019	          0.05000006	          0.10275104	          0.22074351	          0.13627502	          0.20612144	          0.15836470	          0.05776389	          0.05001240	          0.10643778	          0.06673332	          0.17198129	          0.12864148	          0.05000002	          0.05000002	          0.29959955	          0.05000017	          0.05254665	          0.05000001	          0.06470273	          0.06628920	          0.05444024	          0.05776390	          0.05776389	          0.05776390	          0.05730920	          0.05000012	          0.05000017	          0.49186560	          0.31047205	          0.22774058	          0.12324827	          0.50365014	          0.19761133	          0.07921486	          0.08955527	          0.10289703	          0.20238631	          0.09675865	          0.07709522	          0.25622451	          0.18432723	          0.11906304	          0.05000028	          0.05000009	          0.05000004	          0.07597016	          0.08906479	          0.18287521	          0.05033003	          0.05000023	          0.05000032	          0.05000080	          0.60930427	          0.06487491	          0.05000008	          0.05000023	          0.05000014	          0.05000007	          0.31968315	          0.80321040	          0.05000000	          0.05000004	          0.05000031	          0.27897626	          0.06446745	          0.05021539	          0.05532841	          0.26363007	          0.38356183	          0.27685087	          0.33228557	          0.31324700	          0.39101895	          0.05000000	          0.05816172	          0.08489893	          0.05000006	          0.05000000	          0.05000002	          0.05000000	          0.05000000	          0.05000000	
          1.40681993	         -9.10796464	          2.37002190	         -3.88820763	          2.25349670	          0.90939513	          0.00312223	         34.63767512	          3.62856559	         -3.44937399	        -11.83050735	         -0.52153731	          7.97259970	         -9.07762092	         -8.97873357	          6.56431009	         -6.98367770	         -8.55083349	          2.88850707	         -0.27153091	          1.71581554	         26.21239658	         34.08260492	          2.68534505	         -1.44676738	          2.16675667	         -5.77218545	        -14.28213150	          3.01674028	          3.78425299	        -13.59143891	         17.47711235	         25.56857573	         39.62837170	         86.51662706	         86.51662706	          0.05975685	          0.05000010	          0.05000007	          0.05000008	          0.05000009	          0.05000008	          0.29931639	          0.05000016	          0.16085954	          0.05000004	          0.05774475	          0.10289815	          0.23262973	          0.44611290	          0.27279492	          0.13707942	          0.05000002	          0.05000625	          0.09213181	          0.05776390	          0.19446474	          0.19308860	          0.05000011	          0.06673315	          0.56795076	          0.27724436	          0.25296481	          0.07529353	          0.19067060	          0.18858027	          0.15442721	          0.05000000	          0.05000000	          0.05000000	          0.07111724	          0.05063319	          0.05000033	          0.55791547	          0.26874229	          0.22909993	          0.25809665	          0.53383177	          0.19421299	          0.06856778	          0.07751837	          0.08906690	          0.17518407	          0.08375357	          0.06673331	          0.22178602	          0.15955228	          0.10306009	          0.05000046	          0.05000009	          0.05000008	          0.06575920	          0.07709386	          0.23195326	          0.25350240	          0.12960334	          0.05004364	          0.05000042	          0.62121202	          0.07712066	          0.05707616	          0.05000082	          0.05000049	          0.05000070	          0.27671532	          0.73795398	          0.05219070	          0.06673323	          0.05776395	          0.25795137	          0.13733291	          0.13733296	          0.12296549	          0.22819619	          0.33200822	          0.23964002	          0.28762389	          0.27114427	          0.33846307	          0.05000000	          0.05034435	          0.07348787	          0.05000002	          0.05000009	          0.05000007	          0.06378010	          0.06673337	          0.05000006	
          1.41613661	         -9.08976459	          2.56048408	         -4.13898589	          2.27118694	          0.90831834	          0.00295741	         34.01139381	          3.94610604	         -3.18467590	        -11.46430614	         -0.83866688	          7.82365046	         -9.74242030	        -11.28700091	          5.85107017	         -7.97100626	         -8.81823257	          3.95110690	         -0.43027838	          1.14473770	         26.31410766	         36.00790405	          2.91023743	         -1.71558688	          2.18949546	         -6.41108986	        -14.33280697	          2.48117269	          3.28548846	        -13.61817644	         17.51838520	         25.44627238	         40.60838109	         86.51662706	         86.51662706	          0.29313746	          0.05000001	          0.32630918	          0.05000004	          0.05000003	          0.32756456	          0.28158971	          0.11875223	          0.16619781	          0.05000003	          0.05000015	          0.08906806	          0.34016225	          0.38615197	          0.23612947	          0.18589213	          0.05000016	          0.07709525	          0.20716073	          0.05000003	          0.22672789	          0.16713610	          0.05776399	          0.05776396	          0.49161388	          0.23998063	          0.29919196	          0.06517351	          0.16504304	          0.16323366	          0.13367103	          0.05776487	          0.06157317	          0.05776391	          0.06155857	          0.05776397	          0.05776402	          0.48292742	          0.37450977	          0.19830760	          0.22340657	          0.57390826	          0.16810930	          0.06474851	          0.10476684	          0.07709563	          0.15163845	          0.07249647	          0.05776386	          0.19197634	          0.13810727	          0.08920805	          0.05000027	          0.05000019	          0.05000022	          0.05692067	          0.06673191	          0.24542123	          0.46280263	          0.12567476	          0.09930350	          0.11887569	          0.62273604	          0.06675553	          0.05003445	          0.05776353	          0.05776386	          0.05776404	          0.23952269	          0.66920590	          0.05776389	          0.05776384	          0.05000005	          0.22328075	          0.11887450	          0.11887450	          0.10643809	          0.19752489	          0.28738380	          0.20743059	          0.24896506	          0.23470044	          0.29297108	          0.05901058	          0.05000002	          0.06361062	          0.05000003	          0.16870139	          0.05000006	          0.08389616	          0.05776391	          0.05000003	
          1.42545330	         -9.06955355	          2.75217704	         -4.35883826	          2.28892450	          0.90722828	          0.00278698	         33.27119546	          4.22029296	         -2.90892254	        -10.95902857	         -1.14275723	          7.67603168	        -10.36006681	        -13.78815786	          5.25721118	         -9.13651729	         -9.09318581	          4.98082202	         -0.35267127	          0.48328116	         26.57018197	         37.97455948	          3.13447322	         -1.99311736	          2.20175335	         -6.99698738	        -14.38886598	          2.04607440	          2.75690261	        -13.64038249	         17.51093937	         25.25439098	         41.54267041	         86.51662706	         86.51662706	          0.34853756	          0.38056430	          0.51862145	          0.05605828	          0.28060527	          0.28353785	          0.24374193	          0.13777873	          0.14385959	          0.10289691	          0.05776383	          0.07709665	          0.29444187	          0.33425026	          0.20439201	          0.20344447	          0.05000008	          0.06673313	          0.17931689	          0.28038629	          0.27924579	          0.20084224	          0.05000009	          0.05000006	          0.47353699	          0.20772545	          0.25897856	          0.05641370	          0.14286001	          0.14129383	          0.11570464	          0.05000084	          0.05329728	          0.05000001	          0.05328464	          0.05000012	          0.05000017	          0.68100013	          0.41924268	          0.21212174	          0.52095031	          0.62580686	          0.29733111	          0.07845491	          0.09068539	          0.06673340	          0.13125711	          0.06275241	          0.05000001	          0.16617336	          0.11954463	          0.07721784	          0.05000035	          0.05000003	          0.05000003	          0.05000001	          0.05776272	          0.25688234	          0.42509310	          0.10878328	          0.08595793	          0.10289797	          0.65353294	          0.05778329	          0.05000006	          0.05000020	          0.05000015	          0.05000019	          0.20732903	          0.60690584	          0.05000001	          0.05000013	          0.05309084	          0.19327015	          0.10289690	          0.10289690	          0.09213203	          0.17097605	          0.24875724	          0.17955034	          0.21550228	          0.20315493	          0.25359355	          0.15739849	          0.13304943	          0.09736645	          0.30053845	          0.27996803	          0.05000012	          0.10239102	          0.05000000	          0.05000000	
